<?xml version="1.0" encoding="UTF-8"?>
<svg version="1.1" viewBox="0 0 2048 1269" width="1280" height="1280" xmlns="http://www.w3.org/2000/svg">
<path transform="translate(0)" d="m0 0h2048v1269h-2048z" fill="#FDFDFD"/>
<path transform="translate(1376,243)" d="m0 0h30l31 3 24 4 27 7 35 12 21 9 31 16 19 12 12 8 14 10 11 9 13 11 14 11-2 4-11 9-9 9-8 7-31 31-8 7-18 18-7 5-10-9-15-11-22-14-16-9-25-10-25-7-24-5-15-2-18-1h-15l-24 1-25 4-29 7-26 9-20 10-22 14-10 8-12 11-8 7-12 13-11 15-10 17-10 19-11 27-6 23-5 29-2 17v41l4 37-1 20-4 33-7 34-8 28-9 25-16 32-10 17-12 16-11 13-25 25-14 11-15 11-17 10-27 14-24 9-34 10-26 6-33 5-16 1h-35l-24-2-35-5-32-8-33-11-21-10-14-8-18-11-17-13-11-10-8-7-8-8-7-8-12-15-21-35-11-23-10-26-7-24-5-25-3-23-2-26-1-39v-407l1-1h130l6 1 1 65v294l1 82 2 20 6 25 9 29 8 18 9 16 10 13 18 18 15 11 16 8 20 8 20 6 29 4 21 1 29-3 18-3 16-5 25-10 16-9 14-10 12-11 10-11 10-14 8-14 8-17 6-16 5-21 4-30 1-126 3-22 7-33 8-29 8-23 12-27 12-23 13-20 8-11 10-13 13-15 15-16 14-14 11-9 13-10 18-12 17-10 21-11 27-11 36-12 22-6 22-4 35-4z" fill="#0470B9"/>
<path transform="translate(1158,745)" d="m0 0 4 4 10 20 8 12 11 14 9 10 5 6 8 7 14 12 17 11 15 9 25 10 35 10 26 5 20 2h37l23-3 25-6 31-9 20-8 17-9 20-12 12-9 14-12 6-5 5 2 63 63 7 8 17 16 4 7-5 5-11 10-14 11-12 9-19 13-13 8-37 19-25 9-41 13-24 5-29 4-29 2h-37l-34-2-42-5-22-5-45-14-19-7-16-8-25-13-12-8-17-12-13-10-14-13-8-7-5-4 1-5 8-9 13-22 15-31 7-20 10-38 5-27z" fill="#020203"/>
<path transform="translate(529,291)" d="m0 0h69l3 2 1 5v188l1 214 2 31 4 29 5 23 9 29 10 25 12 24 9 14 10 13 11 12 13 11 19 13 16 7 17 5v3l-6 2h-19l-25-3-21-5-19-7-15-8-12-9-10-9-13-13-13-17-10-17-9-17-11-27-9-28-8-32-6-33-4-33-1-14-1-27v-349z" fill="#FDFDFD"/>
<path transform="translate(1e3 261)" d="m0 0h139v30l-9 7-12 9-13 12-10 9-19 19-9 11-14 18-16 24-12 20-16 33-6 12-3 5h-1v-30z" fill="#020305"/>
</svg>