<svg xmlns="http://www.w3.org/2000/svg" version="1.1" viewBox="0 0 2048 768" width="1280" height="1280">
<path transform="translate(0)" d="m0 0h2048v768h-2048z"/>
<path transform="translate(1657,209)" d="m0 0h40v155l12-14 7-8 11-9 15-8 12-4 11-2 22-1 18 2 14 4 16 8 13 10 7 7 10 14 8 16 5 15 4 20 1 15v24l-3 24-7 26-7 16-10 16-11 12-10 9-13 8-11 5-21 5-10 1h-18l-14-2-10-3-14-7-14-11-9-9-4-5v29l-1 1h-39z" fill="#F4A75B"/>
<path transform="translate(967,319)" d="m0 0h42l20 4 15 6 14 8 9 7 7 6 10 13 7 12 7 17 6 25 1 6v42l-6 29-8 20-10 16-15 16-11 9-16 9-16 6-20 4-9 1h-27l-19-3-19-7-16-9-14-11-11-12-9-14-7-15-6-20-2-14v-41l3-20 6-19 8-16 8-12 8-10 7-7 14-10 16-8 20-6z" fill="#F4A75B"/>
<path transform="translate(103,149)" d="m0 0h16l21 1 1 313 3 18 4 15 6 16 8 16 8 12 13 15 14 12 13 8 16 8 16 6 13 3 20 2h20l19-2 17-4 15-6 19-10 12-8 11-9 11-12 10-15 10-19 6-17 3-15 1-9 1-24v-294h38v305l-2 24-6 25-8 21-8 17-10 15-11 14-17 17-15 11-19 11-20 8-22 6-24 5-8 1h-28l-24-4-23-6-19-7-17-9-12-8-13-11-19-19-11-15-11-19-8-20-6-22-4-21-1-9v-310z" fill="#FEFEFD"/>
<path transform="translate(1496,318)" d="m0 0 19 1 14 3 12 5 12 7 6 5 10 13 6 12 6 20v183l-1 1h-38l2-36-5 5-9 10-4 5-11 9-14 8-17 5-8 1h-23l-16-3-15-6-10-7-9-8-9-14-5-13-2-12v-14l2-13 5-15 7-11 8-10 11-8 14-7 17-5 30-5 56-8 5-2v-10l-3-16-5-13-7-11-9-7-13-4-10-1h-12l-22 3-18 6-19 10-10 7h-2v-37l9-6 18-8 17-5 18-3z" fill="#F4A85B"/>
<path transform="translate(970,352)" d="m0 0h32l12 3 12 5 13 9 8 9 8 14 5 12 3 11 2 16v33l-3 18-5 15-7 14-7 9-9 8-17 9-10 3-8 1h-24l-15-2-12-5-10-6-12-11-8-11-8-16-4-13-3-22v-18l3-20 5-16 8-16 8-10 11-10 10-6 12-5z"/>
<path transform="translate(1766,351)" d="m0 0h13l14 2 12 5 11 8 5 4 10 14 7 17 4 15 1 9v29l-2 16-5 19-5 12-6 11-11 12-7 6-15 8-7 2-8 1h-22l-15-3-13-7-10-9-8-9-8-14-4-15-1-10v-48l1-13 5-15 8-15 9-11 9-8 14-8 9-3z"/>
<path transform="translate(1288,208)" d="m0 0 40 1v358l-1 1-38 1-1-1z" fill="#F4A75A"/>
<path transform="translate(1168,208)" d="m0 0h38l1 1v357l-2 2h-37l-1-2z" fill="#F4A75B"/>
<path transform="translate(464,513)" d="m0 0 5 3 8 12 11 12 10 10 13 10 11 7 23 12 20 8 18 5 25 4 10 1h41l23-3 23-6 20-8 21-10 16-10 15-11 8-8 1-2 5 2 13 12 10 8v3l-13 11-15 12-17 11-22 12-20 8-23 7-25 6-24 3h-36l-24-3-18-4-24-6-23-8-17-8-16-10-11-8-10-8-12-11-11-11-4-5v-6l11-24z" fill="#F59634"/>
<path transform="translate(620,150)" d="m0 0h34l28 3 24 5 24 8 24 11 18 10 17 12 13 11 9 7 2 2-1 4-12 11-10 9-5-2-8-8-13-10-19-12-23-11-22-8-21-5-15-2-13-1h-29l-26 3-23 5-28 10-19 10-16 11-13 11-13 12-8 7h-1l-1-14v-25l1-8 21-16 20-12 23-11 21-7 21-5 31-4z" fill="#F59635"/>
<path transform="translate(1541,447)" d="m0 0 3 1-1 33-4 16-7 14-8 10-10 9-14 8-14 3h-22l-11-2-9-5-9-9-6-12-2-8v-10l3-12 6-10 11-8 11-5 20-4 40-6z"/>
<path transform="translate(423,275)" d="m0 0h1v106l-1 72-2 24-2 14-2 6-3-4-6-16-5-18-5-26-3-27v-31l6-42 6-21 11-28z" fill="#F59634"/>
<path transform="translate(1168,208)" d="m0 0h38l1 1v357l-2 2h-37v-14h1l2 12 19-1 11-2 2-10v-298l-1-29-2-11-5-2-17-1h-5l-2 11-2 57h-1z" fill="#FDB358"/>
<path transform="translate(1496,318)" d="m0 0 19 1 14 3 12 5 12 7 6 5 10 13 6 12 6 20v183l-1 1h-38l1-11h2l1 9 12-1 15-1 3-1 1-2 1-20v-40l-1-42v-44l-2-30-4-15-7-16-6-8v-2h-2l-5-5-7-6-16-8-12-3-9-1h-19l-18 1 1-2 3-1z" fill="#FCB156"/>
<path transform="translate(1288,208)" d="m0 0 40 1-1 279-2 2-1-49v-56-3h2l-1-16 1-3h-2v-30l-1-62 1-5-1-7 1-4-1-1v-11l1-5-1-13-3-9-3-2-18-2h-7l-2 14-1 148h-1z" fill="#FEB75D"/>
<path transform="translate(1657,209)" d="m0 0h40l-1 128-2-4-1-8-1-22v-78l-3-9-4-3h-21l-3 2-2 13-1 148h-1z" fill="#FEB75D"/>
<path transform="translate(1785,319)" d="m0 0h15l16 4 16 7 11 8 10 9 8 10 7 11 8 19 5 20 2 22v24l-3 4-2-25-1-13-3-19-5-15-7-16-9-14-3-3v-2h-2v-2l-4-2-8-7-22-12-15-5-14-1z" fill="#FDB45A"/>
<path transform="translate(967,319)" d="m0 0h42l20 4 15 6 14 8 9 7 7 6 10 13 7 12 7 17 5 20v9l-1-2h-2l-1-8-2-3v-4h-2l-1 2-5-14v-2h2l-1-6-5-11-10-15-13-13-15-10-17-8-13-4-19-2h-20l-20 1 3-2z" fill="#FDB45A"/>
<path transform="translate(423,275)" d="m0 0h1v34l-1 6-5-4-2 6-3 4h-2l-2 4-5 14-5 27-2 4v-9l4-28 6-21 11-28z" fill="#F4A557"/>
<path transform="translate(1461,321)" d="m0 0h8v2l-23 5-12 5-16 8-2 12v15l7-1 19-9 14-5 9-1v2l-17 5-21 10-13 9h-2v-37l9-6 18-8 17-5z" fill="#FDB45A"/>
<path transform="translate(950,322)" d="m0 0h6l-3 2-18 5-10 5-11 7-13 11-10 14-10 16-6 12-4 10h-1l1-9 7-16 10-16 9-11 7-7 14-10 16-8z" fill="#FDB55C"/>
<path transform="translate(705,622)" d="m0 0 4 1-9 3-21 5-24 3h-36l-10-1-2-1v-2h39l31-2z" fill="#F4A24F"/>
<path transform="translate(423,275)" d="m0 0h1l-1 27h-5l-7 11-5 12-3 11h-1v-7l6-20 11-27z" fill="#FDBB6A"/>
<path transform="translate(1843,458)" d="m0 0h1v9l-5 24-7 16-6 9-12 12-5 2 4-6 8-8 7-11 6-13 5-18 3-15z" fill="#FDB55B"/>
<path transform="translate(1440,432)" d="m0 0 4 1-21 10-9 7-6 7-4 7h-2l-2 5-6 11-4 10h-1l1-8 4-12 7-11 8-10 11-8 14-7z" fill="#FDB55C"/>
<path transform="translate(1858,527)" d="m0 0 1 3-8 11-12 12-15 10-13 6-15 4h-13l1-2 7-2 10-1 11-3 14-7 13-9 6-5 9-11z" fill="#FDB45A"/>
<path transform="translate(1064,473)" d="m0 0h1v10l-5 16-5 11-4 6-5 6-11 7v-3l10-9 8-13 6-15z" fill="#FDB45B"/>
<path transform="translate(1393,531)" d="m0 0 3 4 7 11 2 4 4 2 8 7 3 1 3 3 15 6 16 3 21 1v1h-30l-16-5-12-6-11-9-8-10-5-9z" fill="#FCB156"/>
<path transform="translate(1579,541)" d="m0 0h1l1 6v20l-1 1h-38l1-11h2l1 9 12-1 15-1 3-1 1-2 1-19z" fill="#FDB55D"/>
<path transform="translate(404,457)" d="m0 0 2 4 3 10 4 6 4-1 3-13h1v14l-2 14-2 6-3-4-6-16-4-13z" fill="#F4A656"/>
<path transform="translate(1765,319)" d="m0 0h14l-1 2-16 2-11 3-15 6-11 7-12 9-2-1 8-8 13-9 15-7z" fill="#FDB55C"/>
<path transform="translate(1325,397)" d="m0 0h2v91l-2 2-1-49v-22z" fill="#FFB85E"/>
<path transform="translate(1543,479)" d="m0 0 2 1v10l-4 11-10 15-9 10-11 8-5 2v-2l10-7 10-9 9-14 5-13z" fill="#FDB55C"/>
<path transform="translate(1704,506)" d="m0 0 5 5 7 9 8 8 10 6 7 4v1l-8-1-8-4-5-3-9-9-2-6-2-1-3-7z" fill="#FDB257"/>
<path transform="translate(587,186)" d="m0 0 4 1-6 2-21 6-21 8-17 9-15 10-2-1 11-8 13-8 14-7 27-9z" fill="#F6A652"/>
<path transform="translate(1695,416)" d="m0 0h1v54l-3-1-1-19 1-17v-10z" fill="#FFB85E"/>
<path transform="translate(1326,548)" d="m0 0h1v20l-38 1-1-1v-8l2 3 1 2h24l8-1 1-4z" fill="#FEB75D"/>
<path transform="translate(1758,350)" d="m0 0h27v1l-28 2-13 3-13 7-11 9-9 11-2-1 6-8 5-5 8-7 16-9z" fill="#FDB55C"/>
<path transform="translate(1067,541)" d="m0 0h2l-2 4-12 10-16 9-16 6-4 1h-8l3-2 12-3 6-1 1-2 9-4 9-5 9-6 5-5z" fill="#FDB45C"/>
<path transform="translate(1528,547)" d="m0 0v3l-10 9-15 9-15 5h-8l2-2h7v-2l9-2 16-9 10-8z" fill="#FDB45B"/>
<path transform="translate(1547,340)" d="m0 0 5 2 4 3v2h2v2l3 1 6 13 4 12 2 12v2h-2l-4-18-6-15-9-10z" fill="#FFB85E"/>
<path transform="translate(1715,554)" d="m0 0 10 6 12 6 20 6v1h-9l-10-3-14-7-9-7z" fill="#FDB359"/>
<path transform="translate(1422,563)" d="m0 0 16 6 16 3 21 1v1h-30l-16-5-7-3z" fill="#FDB359"/>
<path transform="translate(1436,471)" d="m0 0 2 1-6 9-3 9-2 18-2-2-2-3v-9h2l1-8 9-14z" fill="#FDB45A"/>
<path transform="translate(1799,354)" d="m0 0 14 7 12 11 8 13 4 8v2h-2l-7-14-9-12-11-8-9-5z" fill="#FBAE55"/>
<path transform="translate(705,622)" d="m0 0 4 1-9 3-21 5h-12v-2l16-2 17-4z" fill="#F4A250"/>
<path transform="translate(1428,513)" d="m0 0h2l6 12 9 9 9 5-3 1-9-4-5-4-8-13z" fill="#FCB156"/>
<path transform="translate(1496,318)" d="m0 0 19 1 7 2v1l-15-1h-19l-18 1 1-2 3-1z" fill="#FCB259"/>
<path transform="translate(1657,559)" d="m0 0 2 1v4l9 1 24 1v1l-5 1h-30z" fill="#FEB75D"/>
<path transform="translate(401,333)" d="m0 0 3 4-4 25-2 8h-1v-9z" fill="#F5A654"/>
<path transform="translate(545,199)" d="m0 0 4 1-16 8-16 10-6 4-2-1 11-8 13-8z" fill="#F9AD57"/>
<path transform="translate(917,507)" d="m0 0 4 2 9 11 8 7 8 5-1 2-12-7-9-9-3-4v-2l-3-1z" fill="#FCB157"/>
<path transform="translate(410,479)" d="m0 0 2 1v3h5l2-3v11l-2 6-3-4-4-10z" fill="#FDB259"/>
<path transform="translate(1781,566)" d="m0 0h12l2 2-15 2h-17l2-2z" fill="#FFB85E"/>
<path transform="translate(1461,321)" d="m0 0h8v2l-23 5-6 1 2-3z" fill="#FDB65D"/>
<path transform="translate(1467,426)" d="m0 0h9l-2 2-23 4-6 1 2-3z" fill="#FDB55C"/>
<path transform="translate(1489,452)" d="m0 0 3 1-2 2-24 4h-5l1-2z" fill="#FCB25A"/>
<path transform="translate(1707,385)" d="m0 0 1 3-7 15-3 10-2-3 1-6 8-16z" fill="#FCAF56"/>
<path transform="translate(1543,557)" d="m0 0h2l1 9 10-1 1 2-2 1h-13z" fill="#FDB45B"/>
<path transform="translate(1038,561)" d="m0 0m-2 1 3 1-4 3-16 5h-8l3-2 12-3 6-1 1-2z" fill="#FDB258"/>
<path transform="translate(572,624)" d="m0 0 8 1 21 4v1h-12l-16-4z" fill="#F6A653"/>
<path transform="translate(1463,352)" d="m0 0h2v2l-17 5-8 3 2-4 14-5z" fill="#FDB65D"/>
<path transform="translate(464,513)" d="m0 0 5 3 5 8-1 2-5-4-1-2-4-1v-5z" fill="#F5A755"/>
<path transform="translate(1326,364)" d="m0 0h1v33h-2l-1-12v-3h2l-1-16z" fill="#FCB45D"/>
<path transform="translate(1695,551)" d="m0 0h2v16l-1 1h-9v-1l6-2z" fill="#FAAB52"/>
<path transform="translate(1843,458)" d="m0 0h1v9l-2 11-3 1 1-9 2-11z" fill="#FCB25A"/>
<path transform="translate(1715,554)" d="m0 0 10 6 9 5 1 3-6-2-13-9z" fill="#FBAF56"/>
<path transform="translate(686,626)" d="m0 0m-3 1 6 1v1l-10 2h-12v-2z" fill="#F6A753"/>
<path transform="translate(1458,458)" d="m0 0h2v2l-16 8-5 2 2-3h2v-2l11-6z" fill="#FDB45B"/>
<path transform="translate(490,237)" d="m0 0 2 1-9 9-7 5 1-4 8-7z" fill="#FBB15B"/>
<path transform="translate(475,528)" d="m0 0 4 2 7 8 8 8-1 2-18-18z" fill="#F4A14C"/>
<path transform="translate(1089,390)" d="m0 0 4 1 3 10-1 5-2-3-4-11z" fill="#F8AF5C"/>
<path transform="translate(1724,365)" d="m0 0 1 3-8 7-6 8-2-1 6-8 5-5z" fill="#FDB35A"/>
<path transform="translate(925,331)" d="m0 0h2v2l-12 7-4 2 1-3z" fill="#FDB65D"/>
<path transform="translate(406,319)" d="m0 0 1 3-4 14h-1v-7l3-9z" fill="#FDB359"/>
<path transform="translate(1858,527)" d="m0 0 1 3-8 11-2-2 8-10z" fill="#FCB057"/>
<path transform="translate(875,389)" d="m0 0 1 2-5 13h-1l1-9 2-5z" fill="#FCB258"/>
<path transform="translate(1799,354)" d="m0 0 14 7 2 4-9-5-7-4z" fill="#FBB058"/>
<path transform="translate(1820,561)" d="m0 0m-1 1m-3 1h3l-1 3-9 3 1-3z" fill="#FDB258"/>
<path transform="translate(1026,566)" d="m0 0m-2 1h2v2l-7 2h-8l3-2z" fill="#FCB056"/>
<path transform="translate(786,539)" d="m0 0 4 1v2l-5 2-7 7v-3l7-7z" fill="#F7A54F"/>
<path transform="translate(1436,471)" d="m0 0 2 1-6 9-2 5-2-4z" fill="#FBAF56"/>
<path transform="translate(558,194)" d="m0 0 3 1-3 2-9 3-2-2z" fill="#F8A851"/>
</svg>