<svg xmlns="http://www.w3.org/2000/svg" version="1.1" viewBox="0 0 2048 1588" width="1280" height="1280">
<path transform="translate(0)" d="m0 0h2048v1588h-2048z"/>
<path transform="translate(260,255)" d="m0 0h56l21 1 2 2v587l1 78 3 25 6 30 7 27 10 28 13 28 14 23 14 19 12 14 24 24 11 9 14 11 16 10 27 14 19 8 33 11 21 5 27 4 33 2h14l30-2 30-5 30-8 22-8 24-11 19-10 16-10 18-13 11-9 20-20 13-17 11-15 9-14 10-18 9-19 11-29 8-27 5-23 3-31 1-34v-77l-1-313v-142l1-104 12-1h42l26 1 1 318v254l-1 83-2 33-3 25-6 29-7 25-10 30-11 25-11 21-11 18-15 22-13 16-9 11-7 7-7 8-11 11-11 9-12 10-14 11-11 7-21 13-27 13-35 13-23 7-34 8-32 5-34 3h-33l-27-2-41-7-18-4-35-11-26-11-32-16-20-12-16-11-11-9-13-11-13-12-12-11-11-12-13-15-13-18-12-19-10-18-8-16-10-23-9-26-7-23-5-24-6-33-2-21-1-29-1-87v-143l1-410z" fill="#FDFCFB"/>
<path transform="translate(1031,1039)" d="m0 0 5 2 5 5 10 17 8 10 10 11 7 8 19 19 8 7 13 12 18 13 19 13 53 28 24 10 35 11 26 6 26 5 27 4 31 2h56l30-2 14-2 33-7 27-7 35-12 26-11 29-14 21-12 14-10 17-12 14-10 11-9 20-20 4 1 7 7 9 11 12 11 13 11 8 6 4 6-9 8-11 8-11 10-10 8-13 11-13 10-29 19-29 16-22 11-26 11-30 11-36 11-40 9-32 5-31 4-23 2h-30l-72-8-25-4-37-9-30-8-26-9-22-9-18-8-24-12-22-13-19-13-17-13-16-13-20-18-29-29-12-16v-5l9-15 12-23 9-23 5-13z" fill="#F89730"/>
<path transform="translate(1372,256)" d="m0 0h53l56 6 32 5 34 8 26 8 27 10 24 10 23 11 19 10 22 13 10 7 14 10 12 9 10 9 22 18 13 10 6 5 1 5-28 28-8 7-16 12h-5l-6-7-8-7-8-8-14-11-13-10-17-11-15-10-27-15-25-12-28-11-35-11-36-8-32-4-26-2h-63l-32 3-30 5-32 7-37 11-26 10-25 12-23 13-15 10-14 10-13 10-14 12-7 7-8 7-24 24-9 11-3 2-1-25v-58l1-18 2-7 11-9 17-13 15-11 22-14 24-13 17-9 25-11 26-10 41-12 42-9 26-4 44-4z" fill="#F89730"/>
<path transform="translate(939,527)" d="m0 0 2 1 1 5v372l-1 23-3 27-5 25-8 24-2-1-3-12-13-42-11-42-5-28-6-39-2-18-1-17v-62l3-21 5-34 4-28 10-40 13-38 16-44 5-10z" fill="#F89730"/>
<path transform="translate(939,527)" d="m0 0 2 1v11l-2 3-5 1-1 3h-2l3-10 4-8z" fill="#FDEDDD"/>
</svg>